<?xml version="1.0" encoding="UTF-8"?>
<svg width="512px" height="512px" viewBox="0 0 512 512" version="1.1" xmlns="http://www.w3.org/2000/svg" xmlns:xlink="http://www.w3.org/1999/xlink">
    <!-- Generator: Sketch 41.2 (35397) - http://www.bohemiancoding.com/sketch -->
    <title>adaptive</title>
    <desc>Created with Sketch.</desc>
    <defs>
        <linearGradient x1="65.0148388%" y1="69.0366088%" x2="20.0635984%" y2="23.8170184%" id="linearGradient-1">
            <stop stop-color="#000000" stop-opacity="0.119338768" offset="0%"></stop>
            <stop stop-color="#000000" stop-opacity="0.336871603" offset="100%"></stop>
        </linearGradient>
    </defs>
    <g id="Page-1" stroke="none" stroke-width="1" fill="none" fill-rule="evenodd">
        <g id="adaptive">
            <path d="M351.763013,257.26416 C351.763013,253.778591 354.585732,250.95298 358.080911,250.95298 L395.934555,250.95298 C399.423833,250.95298 402.252452,253.785684 402.252452,257.26416 C402.252452,260.749728 399.429734,263.575339 395.934555,263.575339 L358.080911,263.575339 C354.591632,263.575339 351.763013,260.742636 351.763013,257.26416 Z M109.413706,257.26416 C109.413706,253.778591 112.236425,250.95298 115.731604,250.95298 L153.585248,250.95298 C157.074526,250.95298 159.903145,253.785684 159.903145,257.26416 C159.903145,260.749728 157.080427,263.575339 153.585248,263.575339 L115.731604,263.575339 C112.242325,263.575339 109.413706,260.742636 109.413706,257.26416 Z M255.833079,353.194094 C259.318648,353.194094 262.144259,356.016812 262.144259,359.511991 L262.144259,397.365635 C262.144259,400.854913 259.311555,403.683533 255.833079,403.683533 C252.347511,403.683533 249.521899,400.860814 249.521899,397.365635 L249.521899,359.511991 C249.521899,356.022713 252.354603,353.194094 255.833079,353.194094 Z M323.665786,325.096866 C326.130455,322.632197 330.124428,322.630152 332.595893,325.101617 L359.362461,351.868185 C361.829753,354.335477 361.826865,358.338637 359.367211,360.798291 C356.902542,363.26296 352.908569,363.265006 350.437104,360.793541 L323.670536,334.026973 C321.203244,331.55968 321.206132,327.55652 323.665786,325.096866 Z M158.407708,152.456287 C160.708066,150.155929 164.440338,150.158584 166.744575,152.462821 L186.367289,172.085535 C188.671256,174.389502 188.669501,178.126726 186.373824,180.422403 C184.073466,182.72276 180.341195,182.720106 178.036957,180.415868 L158.414243,160.793154 C156.110276,158.489187 156.112031,154.751964 158.407708,152.456287 Z M188.000372,325.096866 C190.465041,327.561535 190.467087,331.555508 187.995622,334.026973 L161.229054,360.793541 C158.761762,363.260833 154.758602,363.257945 152.298948,360.798291 C149.834279,358.333622 149.832233,354.33965 152.303698,351.868185 L179.070266,325.101617 C181.537559,322.634324 185.540718,322.637212 188.000372,325.096866 Z M358.037917,152.456287 C360.338274,154.756644 360.33562,158.488916 358.031382,160.793154 L338.408668,180.415868 C336.104701,182.719835 332.367478,182.71808 330.071801,180.422403 C327.771443,178.122045 327.774098,174.389773 330.078335,172.085535 L349.701049,152.462821 C352.005016,150.158855 355.74224,150.16061 358.037917,152.456287 Z" id="Rectangle-1" fill="#FFC04C"></path>
            <path d="M200.294696,314.906269 L402.97626,515.587833 C402.97626,515.587833 501.367697,532.301603 518.712001,515.587833 C536.056304,498.874063 518.712001,404.059546 518.712001,404.059546 L308.557637,195.905182 L200.294696,314.906269 Z" id="Path-1" fill="url(#linearGradient-1)"></path>
            <ellipse id="Oval-2" fill="#FFCA28" cx="255.833079" cy="256.843414" rx="80.7831024" ry="80.7831024"></ellipse>
            <path d="M255.833079,337.626517 C300.448355,337.626517 336.616182,301.45869 336.616182,256.843414 C336.616182,212.228139 289.492705,154.181556 255.833079,112.948513 C226.380907,154.181555 175.049977,212.228139 175.049977,256.843414 C175.049977,301.45869 211.217804,337.626517 255.833079,337.626517 Z" id="Oval-2-Copy" fill="#FFC04C"></path>
        </g>
    </g>
</svg>